<svg xmlns="http://www.w3.org/2000/svg" viewBox="0 0 53 54"><circle cx="26.25" cy="26.75" r="5" fill="none" stroke="#fff" stroke-miterlimit="10"/><path d="M12.55,23.9a3,3,0,0,1,0,5.93,14,14,0,1,0,0-5.93Z" fill="none" stroke="#fff" stroke-miterlimit="10"/><path d="M12.55,23.9a1.16,1.16,0,0,0-.32,0,3,3,0,1,0,0,6l.32,0" fill="none" stroke="#fff" stroke-miterlimit="10"/><path d="M3.13,26.94a23.1,23.1,0,0,0,37.5,17.89A4.38,4.38,0,0,1,44,37.61a4.33,4.33,0,0,1,2.31.66A23.11,23.11,0,1,0,3.13,26.94Z" fill="none" stroke="#fff" stroke-miterlimit="10"/><path d="M40.63,44.83a4.39,4.39,0,1,0,5.64-6.56" fill="none" stroke="#fff" stroke-miterlimit="10"/></svg>