<svg xmlns="http://www.w3.org/2000/svg" width="27.429" height="26" viewBox="0 0 27.429 26"><g transform="translate(-1251.701 -64)"><g transform="translate(-63.654 -9.725)"><path d="M1329,56.987V77.251" transform="translate(0 17.738)" fill="none" stroke="#83898d" stroke-linecap="round" stroke-width="2"/><path d="M1313.346,77l7.346,7.346L1328.039,77" transform="translate(8.307 10.643)" fill="none" stroke="#83898d" stroke-linecap="round" stroke-linejoin="round" stroke-width="2"/></g><path d="M1258,88.912h27.429" transform="translate(-6.299 0.088)" fill="none" stroke="#83898d" stroke-linecap="round" stroke-width="2"/><path d="M2.616-.108C2.616-1.08,2.6-2.2,2.6-3.72h-1.6c.012.744.048,1.764.084,2.46C-.4-1.332-.972-2.16-.972-3.792c0-1.4.36-2.316,3.252-2.088L2.172-7.56C-1.6-7.476-2.772-5.724-2.772-3.516-2.772-.768-.948.684,2.616-.108Z" transform="translate(1271 72)" fill="rgba(255,255,255,0.4)"/></g></svg>